<svg xmlns="http://www.w3.org/2000/svg" class="icon icon-tabler icon-tabler-brand-codesandbox" width="250px" height="250px" viewBox="0 0 24 24" stroke-width="1.00" stroke="rgba(31, 117, 254, 1)" fill="none" stroke-linecap="round" stroke-linejoin="round">
  <g transform="translate(2.40, 2.40) scale(0.8)">
    <path stroke="none" d="M0 0h24v24H0z" fill="none"/>
    <path d="M20 7.5v9l-4 2.25l-4 2.25l-4 -2.25l-4 -2.25v-9l4 -2.25l4 -2.25l4 2.25z"/>
    <path d="M12 12l4 -2.25l4 -2.25"/>
    <line x1="12" y1="12" x2="12" y2="21"/>
    <path d="M12 12l-4 -2.25l-4 -2.25"/>
    <path d="M20 12l-4 2v4.75"/>
    <path d="M4 12l4 2l0 4.75"/>
    <path d="M8 5.25l4 2.25l4 -2.25"/>
  </g>
  <animateTransform attributeName="transform" type="rotate" from="0 12 12" to="360 12 12" dur="20s" repeatCount="indefinite" />
</svg>
